<?xml version="1.0" encoding="UTF-8" standalone="no"?>
<!-- Created with Inkscape (http://www.inkscape.org/) -->

<svg
   xmlns:dc="http://purl.org/dc/elements/1.1/"
   xmlns:cc="http://creativecommons.org/ns#"
   xmlns:rdf="http://www.w3.org/1999/02/22-rdf-syntax-ns#"
   xmlns:svg="http://www.w3.org/2000/svg"
   xmlns="http://www.w3.org/2000/svg"
   xmlns:sodipodi="http://sodipodi.sourceforge.net/DTD/sodipodi-0.dtd"
   xmlns:inkscape="http://www.inkscape.org/namespaces/inkscape"
   width="210mm"
   height="297mm"
   viewBox="0 0 744.09448819 1052.3622047"
   id="svg2"
   version="1.1"
   inkscape:version="0.91 r13725"
   sodipodi:docname="gave_over.svg">
  <defs
     id="defs4" />
  <sodipodi:namedview
     id="base"
     pagecolor="#ffffff"
     bordercolor="#666666"
     borderopacity="1.0"
     inkscape:pageopacity="0.0"
     inkscape:pageshadow="2"
     inkscape:zoom="0.98994949"
     inkscape:cx="174.68061"
     inkscape:cy="612.33278"
     inkscape:document-units="px"
     inkscape:current-layer="layer1"
     showgrid="false"
     inkscape:window-width="1366"
     inkscape:window-height="705"
     inkscape:window-x="-8"
     inkscape:window-y="-8"
     inkscape:window-maximized="1" />
  <metadata
     id="metadata7">
    <rdf:RDF>
      <cc:Work
         rdf:about="">
        <dc:format>image/svg+xml</dc:format>
        <dc:type
           rdf:resource="http://purl.org/dc/dcmitype/StillImage" />
        <dc:title></dc:title>
      </cc:Work>
    </rdf:RDF>
  </metadata>
  <g
     inkscape:label="Layer 1"
     inkscape:groupmode="layer"
     id="layer1">
    <g
       style="font-style:normal;font-weight:normal;font-size:28.89747047px;line-height:125%;font-family:sans-serif;text-align:center;letter-spacing:0px;word-spacing:0px;text-anchor:middle;fill:#ff0000;fill-opacity:1;stroke:#300000;stroke-width:2;stroke-linecap:butt;stroke-linejoin:miter;stroke-opacity:1;stroke-miterlimit:4;stroke-dasharray:none"
       id="text3336"
       inkscape:export-xdpi="90"
       inkscape:export-ydpi="90">
      <path
         d="m 74.576064,295.57766 q 0,-3.14302 -1.619133,-4.34943 -1.619134,-1.23816 -4.762157,-1.23816 -5.365363,0 -9.968781,2.63506 -4.57167,2.60331 -4.57167,5.74633 0,2.00011 1.714376,3.42875 1.746124,1.3969 8.952855,3.49225 7.555955,2.19059 11.206941,4.82565 3.682735,2.60332 3.682735,6.28605 0,6.12731 -9.333827,11.23869 -9.333827,5.07963 -19.397851,5.07963 -3.270014,0 -5.238372,-1.36515 -1.968358,-1.36515 -1.968358,-3.36525 0,-1.58739 0.888936,-2.95254 0.888936,-1.36515 2.127096,-1.36515 0.761945,0 1.3969,0.25398 3.333509,1.42865 6.222551,1.42865 4.952642,0 11.111698,-2.76206 6.190804,-2.79379 6.190804,-5.4606 0,-1.11117 -1.555638,-2.1271 -1.52389,-1.04767 -6.254299,-2.60331 -6.889253,-2.25409 -10.381501,-3.71448 -3.460501,-1.4604 -5.27012,-3.80973 -1.777872,-2.38108 -1.777872,-5.71459 0,-5.93682 6.921001,-11.0482 6.921001,-5.11138 16.254827,-5.11138 5.365363,0 8.444891,2.1271 3.111276,2.12709 3.111276,4.8574 0,5.58759 -6.127308,5.58759 z"
         style="font-style:normal;font-variant:normal;font-weight:bold;font-stretch:normal;font-size:65.01931px;font-family:'Segoe Print';-inkscape-font-specification:'Segoe Print Bold';fill:#ff0000;stroke:#300000;stroke-opacity:1;stroke-width:2;stroke-miterlimit:4;stroke-dasharray:none"
         id="path3343" />
      <path
         d="m 115.68935,313.61036 q -2.1271,7.42897 -8.09567,12.54035 -5.93682,5.07963 -11.873642,5.07963 -4.698662,0 -7.746442,-3.42875 -3.04778,-3.4605 -3.04778,-8.47664 0,-8.19091 5.587597,-16.12784 5.587597,-7.93692 13.556277,-7.93692 5.42885,0 8.79411,4.03196 3.36526,4.00021 3.36526,9.55606 0,2.41282 -0.53971,4.7304 l 0,0.0317 z M 99.180538,303.57809 q -2.22234,1.96835 -4.349436,6.28604 -2.127097,4.31769 -2.127097,8.66713 0,2.63506 0.952431,4.34943 0.984179,1.71438 2.571565,1.71438 3.936719,0 8.190909,-4.66691 4.25419,-4.66692 4.25419,-10.47675 0,-3.27001 -1.3969,-5.36536 -1.36515,-2.1271 -3.84147,-2.1271 -2.34933,0 -4.222444,1.61914 l -0.03175,0 z"
         style="font-style:normal;font-variant:normal;font-weight:bold;font-stretch:normal;font-size:65.01931px;font-family:'Segoe Print';-inkscape-font-specification:'Segoe Print Bold';fill:#ff0000;stroke:#300000;stroke-opacity:1;stroke-width:2;stroke-miterlimit:4;stroke-dasharray:none"
         id="path3345" />
      <path
         d="m 130.32504,313.95959 0.53971,-1.01593 q 3.84147,-7.71469 8.25441,-12.5086 4.44468,-4.82565 8.66712,-4.82565 3.23827,0 5.27012,1.77787 2.0636,1.77787 2.0636,4.22245 0,1.52389 -0.69845,2.63506 -0.69845,1.07942 -1.93661,1.07942 -1.96836,0 -3.58749,-1.61913 -1.14292,-1.04768 -1.80962,-1.04768 -2.38108,0 -7.96867,7.39722 -5.5876,7.39722 -6.73052,16.6358 -0.34922,2.66681 -1.55564,3.71448 -1.20641,1.07942 -3.27001,1.07942 -2.19059,0 -3.11128,-2.47632 -0.92068,-2.50807 -0.92068,-8.15916 0,-2.31758 0.12699,-6.2543 0.12699,-3.71448 0.7302,-9.07984 0.15874,-1.3969 0.22223,-2.1906 0.28573,-3.11127 0.63496,-4.25419 0.38097,-1.17466 1.71437,-2.19059 1.33341,-1.01593 2.95254,-1.01593 1.71438,0 2.60331,0.98418 0.88894,0.98418 0.88894,2.15885 0,1.49214 -1.42865,6.1908 -0.50796,1.61913 -0.85719,3.87322 l -0.79369,4.88915 z"
         style="font-style:normal;font-variant:normal;font-weight:bold;font-stretch:normal;font-size:65.01931px;font-family:'Segoe Print';-inkscape-font-specification:'Segoe Print Bold';fill:#ff0000;stroke:#300000;stroke-opacity:1;stroke-width:2;stroke-miterlimit:4;stroke-dasharray:none"
         id="path3347" />
      <path
         d="m 163.97761,313.95959 0.53971,-1.01593 q 3.84148,-7.71469 8.25441,-12.5086 4.44468,-4.82565 8.66712,-4.82565 3.23827,0 5.27012,1.77787 2.0636,1.77787 2.0636,4.22245 0,1.52389 -0.69845,2.63506 -0.69844,1.07942 -1.93661,1.07942 -1.96835,0 -3.58749,-1.61913 -1.14291,-1.04768 -1.80962,-1.04768 -2.38107,0 -7.96867,7.39722 -5.5876,7.39722 -6.73052,16.6358 -0.34922,2.66681 -1.55563,3.71448 -1.20642,1.07942 -3.27002,1.07942 -2.19059,0 -3.11127,-2.47632 -0.92069,-2.50807 -0.92069,-8.15916 0,-2.31758 0.12699,-6.2543 0.12699,-3.71448 0.7302,-9.07984 0.15874,-1.3969 0.22224,-2.1906 0.28572,-3.11127 0.63495,-4.25419 0.38097,-1.17466 1.71438,-2.19059 1.3334,-1.01593 2.95253,-1.01593 1.71438,0 2.60332,0.98418 0.88893,0.98418 0.88893,2.15885 0,1.49214 -1.42865,6.1908 -0.50796,1.61913 -0.85718,3.87322 l -0.7937,4.88915 z"
         style="font-style:normal;font-variant:normal;font-weight:bold;font-stretch:normal;font-size:65.01931px;font-family:'Segoe Print';-inkscape-font-specification:'Segoe Print Bold';fill:#ff0000;stroke:#300000;stroke-opacity:1;stroke-width:2;stroke-miterlimit:4;stroke-dasharray:none"
         id="path3349" />
      <path
         d="m 219.69485,311.00705 q -0.50796,7.71469 -1.80962,14.98492 -1.26991,7.23848 -3.77798,13.14355 -2.47632,5.90508 -5.36536,8.03217 -2.85729,2.15885 -6.82576,2.15885 -4.25419,0 -8.15916,-1.61914 l 0.0318,0 q -3.36526,-1.3969 -5.87333,-3.74623 -2.47632,-2.34933 -2.47632,-3.96846 0,-1.49214 0.7302,-2.38108 0.76194,-0.88893 1.96836,-0.88893 1.04767,0 1.74612,0.88893 4.06371,5.23837 11.81015,5.23837 3.14302,0 6.06381,-6.57177 2.92079,-6.57178 3.68273,-15.77861 -9.81004,7.74644 -15.1119,7.74644 -3.42876,0 -5.42886,-2.73031 -2.00011,-2.7303 -2.00011,-6.57177 0,-3.84148 1.77787,-11.14345 1.80962,-7.33372 3.04778,-9.07984 1.26991,-1.77788 4.09546,-1.77788 1.52389,0 2.34933,1.33341 0.82544,1.30165 0.82544,2.88904 0,0.47622 -2.28584,5.36536 -2.7938,5.96857 -2.7938,10.28626 0,2.22234 0.60321,3.39701 0.63496,1.14291 1.30166,1.14291 1.52389,0 3.68273,-0.92068 2.19059,-0.92068 5.11138,-3.17477 2.95254,-2.28584 3.80973,-3.4605 0.85719,-1.17467 1.36515,-3.01603 0.50796,-1.87312 0.79369,-8.19091 0.15874,-3.68274 0.34923,-4.63517 0.22223,-0.95243 1.14291,-1.74612 0.92069,-0.7937 2.47633,-0.7937 2.09535,0 2.95253,0.88894 0.88894,0.88894 0.88894,4.1907 l -0.69845,10.50849 z"
         style="font-style:normal;font-variant:normal;font-weight:bold;font-stretch:normal;font-size:65.01931px;font-family:'Segoe Print';-inkscape-font-specification:'Segoe Print Bold';fill:#ff0000;stroke:#300000;stroke-opacity:1;stroke-width:2;stroke-miterlimit:4;stroke-dasharray:none"
         id="path3351" />
      <path
         d="m 228.17148,333.80191 q 1.4604,-0.25399 4.15895,-1.58739 2.7303,-1.30166 3.4605,-3.33351 0.76195,-2.0636 0.76195,-2.15884 0,-2.73031 -0.63496,-3.65099 -0.6032,-0.92068 -0.6032,-1.65088 0,-0.88894 0.69845,-1.96836 0.69845,-1.11117 1.74612,-1.11117 1.07942,0 2.82555,0.7302 1.77787,0.7302 2.03185,1.30165 0.28573,0.53972 0.82544,2.44458 0.53971,1.87311 0.53971,3.30176 0,0.60321 -1.3334,3.61924 -1.30166,3.01603 -3.42876,4.57167 -2.12709,1.55564 -4.22244,1.93661 -0.41272,0.0635 -0.63496,0.12699 -3.58749,1.30166 -4.82565,1.30166 -2.09535,0 -2.09535,-2.31759 0,-0.82544 0.7302,-1.55563 z"
         style="font-style:normal;font-variant:normal;font-weight:bold;font-stretch:normal;font-size:65.01931px;font-family:'Segoe Print';-inkscape-font-specification:'Segoe Print Bold';fill:#ff0000;stroke:#300000;stroke-opacity:1;stroke-width:2;stroke-miterlimit:4;stroke-dasharray:none"
         id="path3353" />
      <path
         d="m 315.41419,314.02308 0.0317,0 q -0.76195,2.60331 -1.52389,7.01625 -0.76195,4.38118 -0.76195,6.34954 0,3.65099 -0.0635,5.04788 -0.0317,1.3969 -0.57146,2.28584 -0.53971,0.88894 -1.3969,1.36515 -0.85719,0.50796 -1.93661,0.50796 -1.71438,0 -3.17477,-1.20641 -1.42865,-1.20641 -1.42865,-2.82554 0,-0.53972 0.88894,-4.63517 0.79369,-3.65099 1.26991,-6.2543 -10.63549,7.87343 -19.04863,7.87343 -5.68284,0 -9.0481,-3.30176 -3.33351,-3.30176 -3.33351,-9.0481 0,-9.07984 5.46061,-17.42949 l 0,0.0318 q 5.80983,-8.69887 13.71501,-13.71501 7.93693,-5.01614 15.84211,-5.01614 4.09545,0 6.47653,1.52389 2.38108,1.49214 2.38108,3.80973 0,1.93661 -1.65088,4.28594 -1.61913,2.34933 -3.27002,2.34933 -1.04767,0 -1.55563,-0.41272 -0.50797,-0.44447 -1.04768,-1.71438 -0.6032,-1.42865 -1.3969,-2.00011 -0.76194,-0.6032 -2.25408,-0.6032 -4.82566,0 -11.04821,4.76215 -6.1908,4.73041 -10.06402,11.23869 -3.84147,6.47654 -3.84147,12.38161 0,6.22255 5.33361,6.22255 2.76205,0 6.60352,-1.42865 3.84148,-1.42864 8.19091,-4.47642 4.34944,-3.04778 5.20663,-5.55585 0.88893,-2.50807 1.3334,-5.5241 0.25398,-1.77788 1.30166,-2.34933 1.07942,-0.60321 2.88904,-0.60321 4.15895,0 4.15895,2.82555 0,1.11117 -1.07942,3.61923 -0.85719,1.90487 -1.58739,4.60342 z"
         style="font-style:normal;font-variant:normal;font-weight:bold;font-stretch:normal;font-size:65.01931px;font-family:'Segoe Print';-inkscape-font-specification:'Segoe Print Bold';fill:#ff0000;stroke:#300000;stroke-opacity:1;stroke-width:2;stroke-miterlimit:4;stroke-dasharray:none"
         id="path3355" />
      <path
         d="m 347.57461,319.07097 q -8.34965,11.01645 -16.12784,11.01645 -2.85729,0 -4.92089,-2.25408 -2.0636,-2.25409 -2.0636,-5.74634 0,-8.41314 7.49246,-17.90571 7.49246,-9.52431 15.11191,-9.52431 3.87322,0 5.07963,3.90497 3.65099,0 3.65099,2.7938 0,1.3334 -0.69845,4.82565 -1.26991,6.54003 -1.26991,10.44499 0,4.06371 0.53971,5.71459 0.57146,1.65088 0.82544,2.15885 0.25398,0.50796 1.52389,1.07942 1.26991,0.60321 1.26991,1.68263 0,1.61913 -1.65088,2.69855 -1.61914,1.07943 -3.39701,1.07943 -5.96857,0 -5.36536,-11.96889 z m -1.90486,-17.61998 q -3.20652,0 -8.34965,7.11149 -5.11138,7.07974 -5.11138,12.03238 0,2.60331 1.07942,2.60331 3.74623,0 9.20684,-6.63527 5.49235,-6.66702 5.49235,-11.65141 0,-1.58739 -0.7302,-2.50807 -0.69845,-0.95243 -1.58738,-0.95243 z"
         style="font-style:normal;font-variant:normal;font-weight:bold;font-stretch:normal;font-size:65.01931px;font-family:'Segoe Print';-inkscape-font-specification:'Segoe Print Bold';fill:#ff0000;stroke:#300000;stroke-opacity:1;stroke-width:2;stroke-miterlimit:4;stroke-dasharray:none"
         id="path3357" />
      <path
         d="m 372.30608,327.83334 q -0.38097,3.27001 -3.65098,3.27001 -4.15895,0 -4.15895,-6.00032 0,-9.7148 1.04767,-16.60405 0.82544,-5.36536 0.82544,-10.54024 0,-1.23816 0.79369,-2.0636 0.7937,-0.85719 2.22234,-0.85719 4.76216,0 4.76216,5.77809 0,1.87311 -1.68263,9.55606 -1.01592,4.57167 -1.01592,6.63527 9.07984,-19.93756 16.38181,-19.93756 2.95254,0 4.73041,2.34933 1.80962,2.34933 1.87312,10.41324 0.0317,7.36547 0.76194,7.36547 0.57146,0 3.96847,-7.14323 3.77797,-7.90518 6.44478,-10.445 2.69856,-2.53981 5.65109,-2.53981 3.524,0 5.11139,3.04778 1.58738,3.01603 2.22233,10.22276 0.47622,5.71459 1.26991,8.63538 0.82544,2.92078 2.7938,3.87322 1.58739,0.76194 1.58739,2.28583 0,1.36515 -1.80962,2.76205 -1.80962,1.36515 -3.68274,1.36515 -3.23826,0 -5.07963,-3.17477 -1.80962,-3.20652 -2.44457,-12.82607 -0.34923,-4.63517 -0.76195,-6.12731 -0.38097,-1.52389 -1.17466,-1.52389 -0.69845,0 -2.03186,2.28583 -1.3334,2.25409 -4.60342,9.01635 -2.88904,6.09556 -4.98439,8.50839 -2.0636,2.41283 -4.44468,2.41283 -1.84136,0 -3.71448,-1.58739 -1.84136,-1.58738 -2.0001,-11.52442 -0.15874,-8.85761 -1.14292,-8.85761 -1.3334,0 -6.41304,7.87343 -5.07963,7.87344 -7.6512,14.09599 z"
         style="font-style:normal;font-variant:normal;font-weight:bold;font-stretch:normal;font-size:65.01931px;font-family:'Segoe Print';-inkscape-font-specification:'Segoe Print Bold';fill:#ff0000;stroke:#300000;stroke-opacity:1;stroke-width:2;stroke-miterlimit:4;stroke-dasharray:none"
         id="path3359" />
      <path
         d="m 457.35821,318.78524 q 0,3.30176 -5.55585,7.90518 -5.55585,4.57167 -12.54035,4.57167 -5.36536,0 -8.44489,-3.36526 -3.07953,-3.397 -3.07953,-9.42907 0,-8.88936 6.28605,-16.66755 6.28605,-7.77818 13.42928,-7.77818 3.55574,0 5.71459,2.25408 2.15884,2.25409 2.15884,5.36537 0,5.5241 -5.30186,10.54024 -5.30187,4.98439 -13.58802,6.88925 -0.95244,0.22223 -0.95244,1.14292 0,1.52389 1.33341,2.92079 1.36515,1.36515 3.61924,1.36515 6.38129,0 12.66733,-6.57178 1.20642,-1.26991 2.34933,-1.26991 1.90487,0 1.90487,2.1271 z m -21.30272,-5.61935 q 5.01614,-1.01592 8.82587,-4.28594 3.84147,-3.27001 3.84147,-5.93682 0,-1.04767 -0.60321,-1.74612 -0.57146,-0.7302 -1.49214,-0.7302 -2.76205,0 -6.12731,4.06371 -3.36525,4.0637 -4.44468,8.63537 z"
         style="font-style:normal;font-variant:normal;font-weight:bold;font-stretch:normal;font-size:65.01931px;font-family:'Segoe Print';-inkscape-font-specification:'Segoe Print Bold';fill:#ff0000;stroke:#300000;stroke-opacity:1;stroke-width:2;stroke-miterlimit:4;stroke-dasharray:none"
         id="path3361" />
      <path
         d="m 501.932,331.89704 q -5.36537,0 -9.52432,-5.14313 -4.15895,-5.17487 -4.15895,-10.66723 0,-6.47653 3.96847,-14.54045 3.96846,-8.06392 10.22276,-13.1753 6.28605,-5.11138 13.1118,-5.11138 5.30187,0 8.73062,1.26991 3.4605,1.26991 6.34955,3.74623 2.92078,2.44457 3.87322,5.07963 0.98418,2.60332 0.98418,7.17499 0,4.03196 -2.60332,9.81004 -2.57156,5.74633 -7.5242,10.85772 -4.9209,5.11138 -10.03228,7.90517 -5.11138,2.7938 -13.39753,2.7938 z m -5.6511,-16.09609 q 0,3.90497 2.31759,6.50828 2.31758,2.60332 5.33361,2.60332 8.50839,0 15.9691,-8.15916 7.46071,-8.19091 7.46071,-17.366 0,-3.23827 -1.23816,-5.20663 -1.23816,-2.0001 -4.22244,-3.30176 -2.95254,-1.3334 -6.34955,-1.3334 -6.1273,0 -12.69908,8.85761 -6.57178,8.85761 -6.57178,17.39774 z"
         style="font-style:normal;font-variant:normal;font-weight:bold;font-stretch:normal;font-size:65.01931px;font-family:'Segoe Print';-inkscape-font-specification:'Segoe Print Bold';fill:#ff0000;stroke:#300000;stroke-opacity:1;stroke-width:2;stroke-miterlimit:4;stroke-dasharray:none"
         id="path3363" />
      <path
         d="m 547.29947,329.38897 q 0.0317,-2.09534 -2.50807,-9.01635 -5.11138,-13.68326 -5.11138,-19.49309 0,-5.20662 4.09545,-5.20662 4.00022,0 4.00022,4.76215 0,3.04778 0.12699,4.34944 0.15874,1.26991 0.98418,4.66691 0.85718,3.36526 1.68262,5.61935 0.47622,1.36515 1.14292,3.55574 0.38097,1.36515 0.6667,1.90486 0.19049,-0.28573 1.33341,-2.47632 0.6667,-1.3334 4.50817,-7.55595 3.84148,-6.2543 6.73052,-9.96878 2.92079,-3.71449 4.34943,-4.53993 1.42865,-0.82544 3.01604,-0.82544 1.65088,0 2.69855,1.07943 1.07942,1.07942 1.07942,2.63506 0,1.84136 -2.6668,3.61923 -2.60332,1.77788 -7.11149,8.12742 -4.47643,6.34954 -9.65131,15.9691 -2.92078,5.49235 -5.23837,5.49235 -2.0001,0 -4.1272,-2.69856 z"
         style="font-style:normal;font-variant:normal;font-weight:bold;font-stretch:normal;font-size:65.01931px;font-family:'Segoe Print';-inkscape-font-specification:'Segoe Print Bold';fill:#ff0000;stroke:#300000;stroke-opacity:1;stroke-width:2;stroke-miterlimit:4;stroke-dasharray:none"
         id="path3365" />
      <path
         d="m 605.30251,318.78524 q 0,3.30176 -5.55585,7.90518 -5.55585,4.57167 -12.54034,4.57167 -5.36537,0 -8.44489,-3.36526 -3.07953,-3.397 -3.07953,-9.42907 0,-8.88936 6.28604,-16.66755 6.28605,-7.77818 13.42929,-7.77818 3.55574,0 5.71458,2.25408 2.15885,2.25409 2.15885,5.36537 0,5.5241 -5.30187,10.54024 -5.30187,4.98439 -13.58802,6.88925 -0.95243,0.22223 -0.95243,1.14292 0,1.52389 1.3334,2.92079 1.36515,1.36515 3.61924,1.36515 6.38129,0 12.66734,-6.57178 1.20641,-1.26991 2.34933,-1.26991 1.90486,0 1.90486,2.1271 z m -21.30271,-5.61935 q 5.01614,-1.01592 8.82586,-4.28594 3.84147,-3.27001 3.84147,-5.93682 0,-1.04767 -0.6032,-1.74612 -0.57146,-0.7302 -1.49214,-0.7302 -2.76206,0 -6.12731,4.06371 -3.36526,4.0637 -4.44468,8.63537 z"
         style="font-style:normal;font-variant:normal;font-weight:bold;font-stretch:normal;font-size:65.01931px;font-family:'Segoe Print';-inkscape-font-specification:'Segoe Print Bold';fill:#ff0000;stroke:#300000;stroke-opacity:1;stroke-width:2;stroke-miterlimit:4;stroke-dasharray:none"
         id="path3367" />
      <path
         d="m 618.47783,313.95959 0.53971,-1.01593 q 3.84147,-7.71469 8.2544,-12.5086 4.44468,-4.82565 8.66713,-4.82565 3.23826,0 5.27012,1.77787 2.0636,1.77787 2.0636,4.22245 0,1.52389 -0.69845,2.63506 -0.69845,1.07942 -1.93661,1.07942 -1.96836,0 -3.58749,-1.61913 -1.14292,-1.04768 -1.80962,-1.04768 -2.38108,0 -7.96868,7.39722 -5.58759,7.39722 -6.73051,16.6358 -0.34923,2.66681 -1.55564,3.71448 -1.20641,1.07942 -3.27001,1.07942 -2.1906,0 -3.11128,-2.47632 -0.92068,-2.50807 -0.92068,-8.15916 0,-2.31758 0.12699,-6.2543 0.12699,-3.71448 0.73019,-9.07984 0.15874,-1.3969 0.22224,-2.1906 0.28573,-3.11127 0.63495,-4.25419 0.38098,-1.17466 1.71438,-2.19059 1.3334,-1.01593 2.95254,-1.01593 1.71437,0 2.60331,0.98418 0.88893,0.98418 0.88893,2.15885 0,1.49214 -1.42864,6.1908 -0.50797,1.61913 -0.85719,3.87322 l -0.79369,4.88915 z"
         style="font-style:normal;font-variant:normal;font-weight:bold;font-stretch:normal;font-size:65.01931px;font-family:'Segoe Print';-inkscape-font-specification:'Segoe Print Bold';fill:#ff0000;stroke:#300000;stroke-opacity:1;stroke-width:2;stroke-miterlimit:4;stroke-dasharray:none"
         id="path3369" />
      <path
         d="m 194.39192,373.3278 q -0.28573,0.25399 -0.50796,1.42865 -0.22224,1.17467 -1.30166,10.92121 -1.04767,9.74655 -1.04767,15.58813 0,2.41283 0.57146,5.39711 0.15873,0.44447 0.15873,1.01593 0,1.71437 -1.01592,3.07952 -0.98418,1.36516 -2.53982,1.36516 -1.04767,0 -2.66681,-1.04768 -1.58738,-1.01592 -1.90486,-3.49225 -0.31748,-2.47632 -0.31748,-6.44478 0,-5.42886 1.26991,-16.15959 1.26991,-10.73072 1.52389,-10.95296 -0.88893,0 -7.11148,0.47622 -6.2543,0.47622 -7.27023,0.47622 -3.27001,0 -4.53992,-0.82544 -1.26991,-0.85719 -1.26991,-2.66681 0,-1.61914 1.3334,-2.47632 1.36515,-0.85719 6.85751,-0.85719 9.14334,0 17.93745,-1.20641 9.90529,-1.52389 15.01667,-1.52389 5.71459,0 6.95275,1.36515 1.23816,1.3334 1.23816,2.6668 0,3.07953 -2.7303,3.07953 -0.88894,0 -2.8573,-0.19048 -2.0001,-0.15874 -4.66691,-0.15874 -8.03217,0 -11.1117,1.14291 z"
         style="font-style:normal;font-variant:normal;font-weight:bold;font-stretch:normal;font-size:65.01931px;font-family:'Segoe Print';-inkscape-font-specification:'Segoe Print Bold';fill:#ff0000;stroke:#300000;stroke-opacity:1;stroke-width:2;stroke-miterlimit:4;stroke-dasharray:none"
         id="path3371" />
      <path
         d="m 220.23456,395.23372 0.53971,-1.01592 q 3.84147,-7.7147 8.2544,-12.5086 4.44468,-4.82565 8.66713,-4.82565 3.23827,0 5.27012,1.77787 2.0636,1.77787 2.0636,4.22245 0,1.52389 -0.69845,2.63506 -0.69845,1.07942 -1.93661,1.07942 -1.96836,0 -3.58749,-1.61914 -1.14292,-1.04767 -1.80962,-1.04767 -2.38108,0 -7.96868,7.39722 -5.58759,7.39721 -6.73051,16.6358 -0.34923,2.6668 -1.55564,3.71448 -1.20641,1.07942 -3.27001,1.07942 -2.19059,0 -3.11128,-2.47632 -0.92068,-2.50807 -0.92068,-8.15916 0,-2.31758 0.12699,-6.2543 0.12699,-3.71448 0.7302,-9.07985 0.15874,-1.3969 0.22223,-2.19059 0.28573,-3.11127 0.63495,-4.25419 0.38098,-1.17467 1.71438,-2.19059 1.3334,-1.01593 2.95254,-1.01593 1.71437,0 2.60331,0.98418 0.88894,0.98418 0.88894,2.15884 0,1.49215 -1.42865,6.19081 -0.50796,1.61913 -0.85719,3.87322 l -0.79369,4.88914 z"
         style="font-style:normal;font-variant:normal;font-weight:bold;font-stretch:normal;font-size:65.01931px;font-family:'Segoe Print';-inkscape-font-specification:'Segoe Print Bold';fill:#ff0000;stroke:#300000;stroke-opacity:1;stroke-width:2;stroke-miterlimit:4;stroke-dasharray:none"
         id="path3373" />
      <path
         d="m 275.95179,392.28119 q -0.50797,7.71469 -1.80962,14.98492 -1.26991,7.23847 -3.77798,13.14355 -2.47632,5.90507 -5.36536,8.03217 -2.8573,2.15884 -6.82576,2.15884 -4.25419,0 -8.15916,-1.61913 l 0.0317,0 q -3.36526,-1.3969 -5.87333,-3.74623 -2.47632,-2.34933 -2.47632,-3.96846 0,-1.49215 0.7302,-2.38108 0.76194,-0.88894 1.96835,-0.88894 1.04768,0 1.74613,0.88894 4.0637,5.23837 11.81015,5.23837 3.14302,0 6.06381,-6.57178 2.92079,-6.57177 3.68273,-15.77861 -9.81004,7.74644 -15.11191,7.74644 -3.42875,0 -5.42886,-2.7303 -2.0001,-2.7303 -2.0001,-6.57177 0,-3.84148 1.77787,-11.14345 1.80962,-7.33372 3.04778,-9.07985 1.26991,-1.77787 4.09545,-1.77787 1.5239,0 2.34934,1.33341 0.82544,1.30165 0.82544,2.88904 0,0.47621 -2.28584,5.36536 -2.7938,5.96857 -2.7938,10.28626 0,2.22234 0.60321,3.397 0.63495,1.14292 1.30165,1.14292 1.5239,0 3.68274,-0.92068 2.19059,-0.92069 5.11138,-3.17477 2.95254,-2.28584 3.80973,-3.4605 0.85718,-1.17467 1.36515,-3.01604 0.50796,-1.87311 0.79369,-8.19091 0.15874,-3.68273 0.34922,-4.63516 0.22224,-0.95243 1.14292,-1.74613 0.92069,-0.79369 2.47632,-0.79369 2.09535,0 2.95254,0.88894 0.88894,0.88893 0.88894,4.1907 l -0.69845,10.50849 z"
         style="font-style:normal;font-variant:normal;font-weight:bold;font-stretch:normal;font-size:65.01931px;font-family:'Segoe Print';-inkscape-font-specification:'Segoe Print Bold';fill:#ff0000;stroke:#300000;stroke-opacity:1;stroke-width:2;stroke-miterlimit:4;stroke-dasharray:none"
         id="path3375" />
      <path
         d="m 318.9382,400.72608 q -0.53971,1.3334 -3.33351,5.90507 -2.76205,4.53993 -3.84147,5.04789 -1.07943,0.53971 -1.90487,0.53971 -1.14291,0 -2.76205,-1.23816 -1.58738,-1.26991 -1.58738,-2.60331 0,-1.23816 7.96867,-13.36579 4.34944,-6.63527 7.93693,-13.14355 7.20673,-13.14355 8.79412,-15.27065 1.61913,-2.15884 3.30176,-2.15884 2.69855,0 3.90497,1.3969 0.6032,0.44446 0.6032,2.12709 0,1.23816 -0.22223,2.00011 5.80983,17.71522 9.07984,25.08069 3.30177,7.33372 6.60353,10.63548 1.65088,1.65088 2.0001,2.22234 0.38098,0.57146 0.38098,1.52389 0,1.74613 -1.26991,2.92079 -1.26991,1.20641 -3.01603,1.20641 -2.41283,0 -4.9209,-2.7938 -2.47632,-2.79379 -4.69866,-7.68294 -2.19059,-4.88915 -2.19059,-5.49235 0,-0.127 -0.15874,-0.127 -1.71438,0 -7.6512,1.20642 -5.90507,1.20641 -9.49256,2.34933 -0.92069,0.28573 -1.61914,0.28573 -1.23816,0 -1.90486,-0.57146 z m 18.28668,-9.7148 q -0.76194,-1.87312 -4.50817,-13.33404 -0.34923,-1.04767 -0.47622,-1.3334 l -9.01635,17.14376 q 2.00011,-0.34922 4.09545,-0.63495 1.3969,-0.15874 7.11149,-1.33341 1.3969,-0.28573 2.7938,-0.50796 z"
         style="font-style:normal;font-variant:normal;font-weight:bold;font-stretch:normal;font-size:65.01931px;font-family:'Segoe Print';-inkscape-font-specification:'Segoe Print Bold';fill:#ff0000;stroke:#300000;stroke-opacity:1;stroke-width:2;stroke-miterlimit:4;stroke-dasharray:none"
         id="path3377" />
      <path
         d="m 382.49711,401.26579 q -3.524,3.96846 -8.22266,6.54003 -4.66691,2.53981 -8.06392,2.53981 -3.36526,0 -5.23837,-1.96835 -1.84137,-1.96836 -1.84137,-5.42886 0,-4.9209 3.71448,-10.95296 3.74623,-6.03207 10.34976,-10.47675 6.63527,-4.47642 11.93714,-4.47642 2.92078,0 5.04788,1.58738 0.50796,0.38097 0.88894,0.63496 0.76194,0.53971 1.3969,2.0001 0.6667,1.42865 0.6667,2.31759 0,0.57145 -1.20641,3.84147 -1.23817,3.397 -1.74613,6.60352 -0.47621,3.17477 -1.93661,15.9056 -1.30166,11.07996 -6.1908,16.19134 -4.88915,5.11138 -10.85772,5.11138 -6.2543,0 -12.15937,-4.22245 -5.87333,-4.1907 -5.87333,-6.921 0,-2.41282 2.34933,-2.41282 0.92069,0 3.74623,1.84136 7.23848,4.76216 12.41336,4.76216 3.93671,0 6.60352,-4.95264 2.66681,-4.9209 4.22245,-18.06445 z m 0.76194,-17.65173 q -2.34933,0 -6.15906,2.82555 -3.80972,2.7938 -7.04799,7.55595 -3.23826,4.76216 -3.23826,7.90518 0,1.65088 1.20641,1.65088 4.09545,0 8.12741,-3.30176 4.03196,-3.33351 6.50828,-7.6512 2.50807,-4.31768 2.50807,-6.54002 0,-1.11117 -0.57146,-1.77788 -0.57145,-0.6667 -1.3334,-0.6667 z"
         style="font-style:normal;font-variant:normal;font-weight:bold;font-stretch:normal;font-size:65.01931px;font-family:'Segoe Print';-inkscape-font-specification:'Segoe Print Bold';fill:#ff0000;stroke:#300000;stroke-opacity:1;stroke-width:2;stroke-miterlimit:4;stroke-dasharray:none"
         id="path3379" />
      <path
         d="m 419.70542,400.34511 q -8.34965,11.01645 -16.12784,11.01645 -2.85729,0 -4.92089,-2.25409 -2.0636,-2.25408 -2.0636,-5.74633 0,-8.41314 7.49246,-17.90571 7.49245,-9.52431 15.11191,-9.52431 3.87322,0 5.07963,3.90497 3.65099,0 3.65099,2.79379 0,1.33341 -0.69845,4.82566 -1.26991,6.54002 -1.26991,10.44499 0,4.06371 0.53971,5.71459 0.57146,1.65088 0.82544,2.15884 0.25398,0.50797 1.52389,1.07943 1.26991,0.6032 1.26991,1.68263 0,1.61913 -1.65088,2.69855 -1.61914,1.07942 -3.39701,1.07942 -5.96857,0 -5.36536,-11.96888 z m -1.90486,-17.61998 q -3.20652,0 -8.34965,7.11148 -5.11138,7.07974 -5.11138,12.03239 0,2.60331 1.07942,2.60331 3.74623,0 9.20683,-6.63527 5.49236,-6.66702 5.49236,-11.65141 0,-1.58739 -0.7302,-2.50807 -0.69845,-0.95243 -1.58738,-0.95243 z"
         style="font-style:normal;font-variant:normal;font-weight:bold;font-stretch:normal;font-size:65.01931px;font-family:'Segoe Print';-inkscape-font-specification:'Segoe Print Bold';fill:#ff0000;stroke:#300000;stroke-opacity:1;stroke-width:2;stroke-miterlimit:4;stroke-dasharray:none"
         id="path3381" />
      <path
         d="m 453.64371,363.80349 q 0,2.25409 -2.03185,3.96847 -2.03185,1.68262 -3.524,1.68262 -1.90486,0 -3.397,-1.58738 -1.4604,-1.58739 -1.4604,-3.17477 0,-2.28584 1.4604,-3.68274 1.46039,-1.42864 4.1907,-1.42864 2.12709,0 3.42875,1.2699 1.3334,1.23817 1.3334,2.95254 z m -15.33414,26.09662 0,0.0317 q 1.01593,-5.77809 1.01593,-6.60353 0,-2.34933 1.01592,-3.93671 1.04768,-1.58739 2.88904,-1.58739 2.15885,0 3.36526,1.01593 1.20641,1.01593 1.20641,2.28583 0,1.26991 -1.17466,5.23838 l -0.19049,0.69845 q -1.74612,6.1273 -2.09535,10.00052 -0.34922,3.87322 -0.34922,6.2543 0,1.93661 0.6667,5.17488 0.0952,0.57146 0.0952,0.95243 0,0.7302 -1.3969,1.96836 -1.36515,1.23816 -2.95253,1.23816 -4.1907,0 -4.1907,-6.34954 0,-5.39711 1.52389,-13.14355 0.31748,-1.71438 0.57146,-3.23827 z"
         style="font-style:normal;font-variant:normal;font-weight:bold;font-stretch:normal;font-size:65.01931px;font-family:'Segoe Print';-inkscape-font-specification:'Segoe Print Bold';fill:#ff0000;stroke:#300000;stroke-opacity:1;stroke-width:2;stroke-miterlimit:4;stroke-dasharray:none"
         id="path3383" />
      <path
         d="m 481.39122,406.34542 q -1.52389,-2.85729 -2.22234,-10.66723 -0.69845,-8.12741 -3.11127,-8.12741 -2.28584,0 -7.90518,8.47664 -5.61935,8.44489 -6.921,12.47685 -0.28573,1.20641 -1.07943,2.0001 -0.76194,0.7937 -1.52389,0.7937 -4.82565,0 -4.82565,-4.41294 0,-1.49214 0.95243,-6.79401 1.23816,-6.8575 1.23816,-16.76279 0,-1.49214 1.30166,-3.17477 1.30166,-1.71437 2.76205,-1.71437 1.84137,0 2.82555,0.92068 0.98418,0.92068 0.98418,4.88915 0,3.01603 -1.80962,11.68315 6.88925,-16.12783 15.36589,-16.12783 7.36547,0 8.63537,11.58791 1.26991,11.81015 2.92079,11.81015 0.7302,0 1.68263,-0.31748 1.14292,-0.38097 1.80962,-0.38097 1.52389,0 1.52389,1.77787 0,1.61914 -2.09535,3.4605 -2.09535,1.80962 -5.27012,1.80962 -3.68273,0 -5.27012,-3.20652 l 0.0317,0 z"
         style="font-style:normal;font-variant:normal;font-weight:bold;font-stretch:normal;font-size:65.01931px;font-family:'Segoe Print';-inkscape-font-specification:'Segoe Print Bold';fill:#ff0000;stroke:#300000;stroke-opacity:1;stroke-width:2;stroke-miterlimit:4;stroke-dasharray:none"
         id="path3385" />
      <path
         d="m 505.67822,395.77344 q -3.17477,0 -4.92089,-1.30166 -0.50797,-6.1908 0.88893,-12.73083 1.55564,-7.07974 1.55564,-10.60374 0,-0.34922 0.31748,-2.63506 0.34922,-2.31758 2.03185,-3.52399 1.68263,-1.20642 2.85729,-1.20642 1.26991,0 2.41283,0.95244 1.17467,0.92068 1.17467,2.03185 0,0.88893 -1.30166,6.60352 -1.26991,5.68284 -2.53982,10.47675 -1.3334,4.98439 -1.3969,7.96867 -0.0635,2.25409 -1.07942,3.96847 z m -4.50817,14.60394 q -3.49225,0 -3.49225,-3.87322 0,-1.46039 1.42865,-3.36526 1.42864,-1.90486 3.07952,-1.90486 1.07943,0 2.69856,1.04768 1.61913,1.04767 1.61913,1.77787 l -0.31748,1.96836 q -0.28573,2.09535 -2.0636,3.23826 -1.77787,1.11117 -2.95253,1.11117 z"
         style="font-style:normal;font-variant:normal;font-weight:bold;font-stretch:normal;font-size:65.01931px;font-family:'Segoe Print';-inkscape-font-specification:'Segoe Print Bold';fill:#ff0000;stroke:#300000;stroke-opacity:1;stroke-width:2;stroke-miterlimit:4;stroke-dasharray:none"
         id="path3387" />
    </g>
  </g>
</svg>
